<svg width="633" height="481" viewBox="0 0 633 481" fill="none" xmlns="http://www.w3.org/2000/svg">
<path fill-rule="evenodd" clip-rule="evenodd" d="M397.506 40.5706C394.315 21.6253 407.086 3.68009 426.031 0.488778C444.976 -2.70253 462.921 10.0686 466.113 29.0139C469.304 47.9592 456.533 65.9044 437.588 69.0957C418.642 72.2869 400.697 59.5159 397.506 40.5706ZM421.302 36.5622C422.28 42.3652 427.777 46.2771 433.58 45.2996C436.366 44.8301 438.852 43.2729 440.491 40.9705C442.13 38.668 442.786 35.8089 442.317 33.0222C441.339 27.2192 435.843 23.3073 430.04 24.2849C424.237 25.2624 420.325 30.7591 421.302 36.5622Z" fill="#CDE2FD"/>
<path fill-rule="evenodd" clip-rule="evenodd" d="M68.0825 327.785C64.8912 308.839 77.6623 290.894 96.6076 287.703C115.553 284.511 133.498 297.282 136.689 316.228C139.881 335.173 127.11 353.118 108.164 356.309C89.219 359.501 71.2738 346.73 68.0825 327.785ZM91.8788 323.776C92.8563 329.579 98.353 333.491 104.156 332.513H104.156C106.943 332.044 109.429 330.487 111.067 328.184C112.706 325.882 113.363 323.023 112.893 320.236C111.916 314.433 106.419 310.521 100.616 311.499C94.8131 312.476 90.9012 317.973 91.8788 323.776Z" fill="#CDE2FD"/>
<path fill-rule="evenodd" clip-rule="evenodd" d="M598.052 256.131C596.455 246.648 602.847 237.666 612.33 236.069C616.884 235.302 621.556 236.375 625.318 239.053C629.081 241.73 631.625 245.793 632.392 250.347C633.99 259.829 627.597 268.812 618.115 270.409C608.632 272.006 599.65 265.614 598.052 256.131ZM610.702 256.07C611.847 257.898 613.981 258.857 616.108 258.498C619.013 258.009 620.971 255.258 620.482 252.353C620.123 250.226 618.519 248.524 616.416 248.041C614.314 247.558 612.128 248.389 610.877 250.147C609.626 251.904 609.557 254.242 610.702 256.07Z" fill="#CDE2FD"/>
<circle cx="456.201" cy="143.473" r="9.19613" fill="#AED3FF"/>
<circle cx="231.964" cy="371.75" r="9.19613" fill="#AED3FF"/>
<path d="M29.2158 149.657L21.6483 150.932L20.3736 143.364C19.9133 140.631 17.3249 138.789 14.5922 139.25V139.25C11.8595 139.71 10.0174 142.298 10.4777 145.031L11.7524 152.599L4.18498 153.873C1.4523 154.334 -0.389812 156.922 0.0705001 159.655V159.655C0.530828 162.387 3.11926 164.229 5.85193 163.769L13.4194 162.494L14.6941 170.062C15.1544 172.795 17.7429 174.637 20.4755 174.176V174.176C23.2082 173.716 25.0503 171.128 24.59 168.395L23.3153 160.827L30.8828 159.553C33.6154 159.092 35.4575 156.504 34.9972 153.771V153.771C34.5369 151.039 31.9485 149.197 29.2158 149.657V149.657Z" fill="#0084F0"/>
<path d="M325.864 289.123L318.297 290.398L317.022 282.83C316.562 280.098 313.973 278.255 311.241 278.716V278.716C308.508 279.176 306.666 281.765 307.126 284.497L308.401 292.065L300.833 293.339C298.101 293.8 296.259 296.388 296.719 299.121V299.121C297.179 301.853 299.768 303.696 302.5 303.235L310.068 301.961L311.343 309.528C311.803 312.261 314.391 314.103 317.124 313.643V313.643C319.857 313.182 321.699 310.594 321.238 307.861L319.964 300.294L327.531 299.019C330.264 298.559 332.106 295.97 331.646 293.237V293.237C331.185 290.505 328.597 288.663 325.864 289.123V289.123Z" fill="#D9E9FF"/>
<path d="M486.02 423.39L478.452 424.665L477.178 417.097C476.717 414.365 474.129 412.522 471.396 412.983V412.983C468.663 413.443 466.821 416.031 467.282 418.764L468.556 426.332L460.989 427.606C459.677 427.827 458.506 428.561 457.734 429.645C456.963 430.729 456.653 432.075 456.874 433.388V433.388C457.335 436.12 459.923 437.963 462.656 437.502L470.223 436.228L471.498 443.795C471.958 446.528 474.547 448.37 477.279 447.909V447.909C480.012 447.449 481.854 444.861 481.394 442.128L480.119 434.561L487.687 433.286C490.419 432.825 492.261 430.237 491.801 427.504V427.504C491.341 424.772 488.752 422.93 486.02 423.39Z" fill="#0084F0"/>
<path d="M110.672 419.657L108.865 418.372L110.151 416.565C110.615 415.913 110.462 415.007 109.81 414.543V414.543C109.158 414.079 108.252 414.231 107.788 414.884L106.502 416.69L104.696 415.405C104.043 414.94 103.138 415.093 102.674 415.745V415.745C102.21 416.397 102.362 417.303 103.015 417.767L104.821 419.053L103.535 420.859C103.071 421.512 103.224 422.417 103.876 422.881V422.881C104.528 423.345 105.434 423.193 105.898 422.541L107.184 420.734L108.99 422.02C109.643 422.484 110.548 422.332 111.012 421.679V421.679C111.476 421.027 111.324 420.122 110.672 419.657V419.657Z" fill="#0084F0"/>
<path d="M189.769 62.2117V62.2117C189.623 61.3292 188.948 60.6279 188.072 60.4473C180.495 58.9545 173.925 54.2785 170.032 47.6088C169.574 46.84 168.691 46.4323 167.809 46.583V46.583C166.926 46.7295 166.225 47.4042 166.044 48.2805C164.552 55.8574 159.876 62.4279 153.206 66.3205C152.437 66.7781 152.029 67.6618 152.18 68.5437V68.5437C152.326 69.4263 153.001 70.1276 153.877 70.3081C161.454 71.8009 168.025 76.4769 171.917 83.1467C172.375 83.9154 173.259 84.3232 174.141 84.1725V84.1725C175.023 84.0259 175.725 83.3512 175.905 82.475C177.398 74.8981 182.074 68.3276 188.744 64.435C189.512 63.9773 189.92 63.0937 189.769 62.2117Z" fill="#D9E9FF"/>
<path d="M587.204 140.705V140.705C587.057 139.823 586.382 139.121 585.506 138.941C577.929 137.448 571.359 132.772 567.466 126.102C567.008 125.334 566.125 124.926 565.243 125.077V125.077C564.36 125.223 563.659 125.898 563.478 126.774C561.986 134.351 557.31 140.921 550.64 144.814C549.871 145.272 549.463 146.155 549.614 147.037V147.037C549.761 147.92 550.435 148.621 551.312 148.802C558.888 150.294 565.459 154.97 569.352 161.64C569.809 162.409 570.693 162.817 571.575 162.666V162.666C572.457 162.519 573.159 161.845 573.339 160.969C574.832 153.392 579.508 146.821 586.178 142.928C586.946 142.471 587.354 141.587 587.204 140.705Z" fill="#D9E9FF"/>
<path d="M181.929 106.9L28.6383 150.302C28.6383 150.302 28.0833 24.3279 123.729 21.9222C190.49 20.2429 199.562 74.2952 199.562 74.2952L181.929 106.9Z" fill="#7AC042" stroke="#143C9A" stroke-width="1.6" stroke-linecap="round" stroke-linejoin="round"/>
<path d="M191.29 477.568C139.684 416.683 300.777 408.642 203.569 346.006C91.6257 273.876 485.322 -7.50658 115.852 22.419C115.852 22.419 247.092 33.0914 114.196 212.603C-18.3686 391.667 198.212 319.7 155.415 409.926C130.283 462.91 191.29 477.568 191.29 477.568Z" fill="white" stroke="#143C9A" stroke-width="1.6" stroke-linecap="round" stroke-linejoin="round"/>
<path d="M198.91 133.735H170.955L191.813 84.6766H219.769L198.91 133.735V133.735Z" fill="#7AC042"/>
<path d="M264.365 93.8209H225.118C223.813 93.8209 223.461 92.1594 224.333 90.1099L225.065 88.3875C225.936 86.3379 227.701 84.6765 229.006 84.6765H268.253C269.558 84.6765 269.909 86.3379 269.038 88.3875L268.306 90.1099C267.434 92.1594 265.67 93.8209 264.365 93.8209Z" fill="#7AC042"/>
<path d="M256.363 112.642H217.115C215.81 112.642 215.459 110.98 216.33 108.931L217.063 107.208C217.934 105.159 219.698 103.498 221.003 103.498H260.251C261.555 103.498 261.907 105.159 261.036 107.208L260.303 108.931C259.432 110.98 257.667 112.642 256.363 112.642Z" fill="#7AC042"/>
<path d="M248.36 131.463H209.113C207.808 131.463 207.456 129.801 208.328 127.752L209.06 126.03C209.932 123.98 211.696 122.319 213.001 122.319H252.248C253.553 122.319 253.905 123.98 253.033 126.03L252.301 127.752C251.429 129.801 249.665 131.463 248.36 131.463Z" fill="#7AC042"/>
<path d="M228.961 158.232H161.951C161.172 158.232 160.962 157.239 161.482 156.015L161.92 154.986C162.44 153.762 163.494 152.769 164.274 152.769H231.284C232.063 152.769 232.273 153.762 231.753 154.986L231.315 156.015C230.795 157.239 229.741 158.232 228.961 158.232Z" fill="#7AC042"/>
<path d="M221.683 175.35H154.673C153.893 175.35 153.683 174.357 154.204 173.133L154.641 172.104C155.162 170.879 156.216 169.887 156.996 169.887H224.005C224.785 169.887 224.995 170.879 224.474 172.104L224.037 173.133C223.516 174.357 222.462 175.35 221.683 175.35Z" fill="#7AC042"/>
<path d="M214.404 192.467H147.395C146.615 192.467 146.405 191.475 146.926 190.25L147.363 189.221C147.884 187.997 148.938 187.004 149.717 187.004H216.727C217.507 187.004 217.717 187.997 217.196 189.221L216.759 190.25C216.238 191.475 215.184 192.467 214.404 192.467Z" fill="#7AC042"/>
<path d="M207.126 209.585H140.117C139.337 209.585 139.127 208.593 139.648 207.368L140.085 206.339C140.606 205.115 141.66 204.122 142.44 204.122H209.449C210.229 204.122 210.439 205.115 209.918 206.339L209.481 207.368C208.96 208.593 207.906 209.585 207.126 209.585Z" fill="#7AC042"/>
<path d="M161.756 232.53H130.36C129.581 232.53 129.371 231.537 129.891 230.313L130.329 229.284C130.85 228.06 131.904 227.067 132.683 227.067H164.079C164.858 227.067 165.068 228.06 164.548 229.284L164.11 230.313C163.589 231.537 162.535 232.53 161.756 232.53Z" fill="#7AC042"/>
<path d="M171.108 302.936C164.145 307.921 156.472 311.832 148.348 314.539" stroke="#143C9A" stroke-width="1.6" stroke-linecap="round" stroke-linejoin="round"/>
<path d="M208.164 43.7366L203.069 48.8613" stroke="#143C9A" stroke-width="1.6" stroke-linecap="round" stroke-linejoin="round"/>
<path d="M576.886 300.727H412.336C396.937 300.727 384.454 288.171 384.454 272.682V121.258C384.454 105.77 396.937 93.2142 412.336 93.2142H576.886C592.285 93.2142 604.768 105.77 604.768 121.258V272.682C604.768 288.171 592.285 300.727 576.886 300.727Z" fill="white" stroke="#143C9A" stroke-width="1.6" stroke-linecap="round" stroke-linejoin="round"/>
<ellipse cx="494.611" cy="153.589" rx="34.6485" ry="34.8935" fill="#0084F0" stroke="#143C9A" stroke-width="1.6" stroke-linecap="round" stroke-linejoin="round"/>
<path d="M484.957 153.589V140.732C484.952 139.954 485.364 139.232 486.037 138.841C486.71 138.45 487.541 138.449 488.215 138.838L499.271 145.266L510.327 151.694C511 152.088 511.413 152.809 511.413 153.589C511.413 154.368 511 155.089 510.327 155.483L499.271 161.911L488.215 168.34C487.541 168.729 486.71 168.728 486.037 168.336C485.364 167.945 484.952 167.224 484.957 166.445V153.589Z" fill="white" stroke="#143C9A" stroke-width="1.6" stroke-linecap="round" stroke-linejoin="round"/>
<rect x="416.269" y="215.93" width="156.684" height="12.0862" rx="0.90474" fill="#7AC042" stroke="#143C9A" stroke-width="1.6" stroke-linecap="round" stroke-linejoin="round"/>
<rect x="452.006" y="241.613" width="85.2099" height="12.0862" rx="0.90474" fill="#7AC042" stroke="#143C9A" stroke-width="1.6" stroke-linecap="round" stroke-linejoin="round"/>
<path d="M441.029 123.247C439.641 124.999 437.861 126.4 435.832 127.337" stroke="#143C9A" stroke-width="1.6" stroke-linecap="round" stroke-linejoin="round"/>
<path d="M560.871 263.001L557.4 265.914" stroke="#143C9A" stroke-width="1.6" stroke-linecap="round" stroke-linejoin="round"/>
<path d="M228.172 166.363L234.915 157.622L237.713 148.287L247.515 146.699L250.302 157.812L243.799 160.941L236.595 171.037L228.172 166.363V166.363Z" fill="white" stroke="#143C9A" stroke-width="1.6" stroke-linecap="round" stroke-linejoin="round"/>
<path d="M242.033 152.412C237.193 170.58 254.602 163.27 249.65 155.213C242.918 158.703 243.652 152.15 243.652 152.15C243.652 152.15 246.746 150.35 245.142 148.011C245.142 148.011 247.47 146.522 247.873 148.13C250.242 144.525 248.162 144.204 241.048 144.344C231.901 144.524 234.252 158.746 234.252 158.746C234.252 158.746 238.875 164.183 242.033 152.412Z" fill="#0084F0" stroke="#143C9A" stroke-width="1.6" stroke-linecap="round" stroke-linejoin="round"/>
<path d="M241.781 153.308C237.301 150.257 236.776 156.143 240.427 158.83Z" fill="white"/>
<path d="M241.781 153.308C237.301 150.257 236.776 156.143 240.427 158.83" stroke="#143C9A" stroke-width="1.6" stroke-linecap="round" stroke-linejoin="round"/>
<path d="M228.587 270.265L236.157 270.373L238.954 252.642L229.741 252.51L228.587 270.265V270.265Z" fill="white"/>
<mask id="mask0_225_22" style="mask-type:luminance" maskUnits="userSpaceOnUse" x="228" y="252" width="11" height="19">
<path fill-rule="evenodd" clip-rule="evenodd" d="M228.587 270.265L236.157 270.373L238.954 252.642L229.741 252.51L228.587 270.265V270.265Z" fill="white"/>
</mask>
<g mask="url(#mask0_225_22)">
<path d="M221.577 261.775C237.061 264.703 233.401 261.412 237.647 260.928C241.892 260.443 228.587 257.827 228.587 257.827L226.656 258.886" fill="#7AC042"/>
</g>
<path fill-rule="evenodd" clip-rule="evenodd" d="M228.587 270.265L236.157 270.373L238.954 252.642L229.741 252.51L228.587 270.265V270.265Z" stroke="#143C9A" stroke-width="1.6" stroke-linecap="round" stroke-linejoin="round"/>
<path d="M253.332 275.758C253.682 272.619 252.01 272.786 249.498 272.166C243.95 270.797 237.731 271.234 237.424 265.428L227.945 266.303L227.462 272.813C227.338 274.079 228.116 275.145 229.173 275.161L253.332 275.758Z" fill="#0084F0" stroke="#143C9A" stroke-width="1.6" stroke-linecap="round" stroke-linejoin="round"/>
<path d="M227.529 259.709C233.22 264.442 240.413 259.563 240.413 259.563L245.953 223.17C246.413 218.824 244.808 214.515 241.616 211.53L217.881 189.375L199.757 199.946L230.126 225.473L227.529 259.709Z" fill="white"/>
<path fill-rule="evenodd" clip-rule="evenodd" d="M227.529 259.709C233.22 264.442 240.413 259.563 240.413 259.563L245.953 223.17C246.413 218.824 244.808 214.515 241.616 211.53L217.881 189.375L199.757 199.946L230.126 225.473L227.529 259.709Z" stroke="#143C9A" stroke-width="1.6" stroke-linecap="round" stroke-linejoin="round"/>
<path d="M153.285 260.95L158.696 266.271L172.861 255.36L166.276 248.884L153.285 260.95V260.95Z" fill="white"/>
<mask id="mask1_225_22" style="mask-type:luminance" maskUnits="userSpaceOnUse" x="153" y="248" width="20" height="19">
<path fill-rule="evenodd" clip-rule="evenodd" d="M153.285 260.95L158.696 266.271L172.861 255.36L166.276 248.884L153.285 260.95V260.95Z" fill="white"/>
</mask>
<g mask="url(#mask1_225_22)">
<path d="M145.83 256.394C161.677 253.155 163.668 261.876 168.127 260.256C172.586 258.637 161.562 248.884 161.562 248.884L147.564 251.286" fill="#7AC042"/>
</g>
<path fill-rule="evenodd" clip-rule="evenodd" d="M153.285 260.95L158.696 266.271L172.861 255.36L166.276 248.884L153.285 260.95V260.95Z" stroke="#143C9A" stroke-width="1.6" stroke-linecap="round" stroke-linejoin="round"/>
<path d="M172.287 274.652C174.159 272.117 168.405 271.32 168.405 271.32C164.658 271.216 158.696 266.271 162.657 263.477L155.613 258.228L149.191 263.941C148.451 264.972 148.589 266.287 149.495 266.835L162.118 274.652L172.287 274.652Z" fill="#0084F0" stroke="#143C9A" stroke-width="1.6" stroke-linecap="round" stroke-linejoin="round"/>
<path d="M223.024 191.184L199.851 183.033L192.06 226.007L159.026 252.964C159.026 252.964 165.106 261.032 170.868 262.112L199.813 240.244C202.806 238.502 205.13 235.81 206.417 232.594L216.81 206.68" fill="white"/>
<mask id="mask2_225_22" style="mask-type:luminance" maskUnits="userSpaceOnUse" x="159" y="183" width="65" height="80">
<path fill-rule="evenodd" clip-rule="evenodd" d="M223.024 191.184L199.851 183.033L192.06 226.007L159.026 252.964C159.026 252.964 165.106 261.032 170.868 262.112L199.813 240.245C202.806 238.502 205.13 235.81 206.417 232.594L216.81 206.68" fill="white"/>
</mask>
<g mask="url(#mask2_225_22)">
<path d="M191.025 221.967C208.367 195.729 199.162 198.587 217.061 200.038C239.032 201.82 215.683 196.676 215.683 196.676L212.437 178.53L196.821 172.573L194.671 173.948L183.511 189.375L169.617 229.388" fill="#7AC042"/>
</g>
<path d="M223.024 191.184L199.851 183.033L192.06 226.007L159.026 252.964C159.026 252.964 165.106 261.032 170.868 262.112L199.813 240.244C202.806 238.502 205.13 235.81 206.417 232.594L216.81 206.68" stroke="#143C9A" stroke-width="1.6" stroke-linecap="round" stroke-linejoin="round"/>
<path d="M232.672 160.219C236.766 160.733 236.799 168.165 236.799 168.165L229.607 182.872C229.607 182.872 223.425 199.983 220.595 200.339C206.305 198.788 193.306 185.211 193.306 185.211C193.306 185.211 220.173 159.626 232.672 160.219Z" fill="#0084F0"/>
<mask id="mask3_225_22" style="mask-type:luminance" maskUnits="userSpaceOnUse" x="193" y="160" width="44" height="41">
<path fill-rule="evenodd" clip-rule="evenodd" d="M232.672 160.219C236.766 160.733 236.799 168.165 236.799 168.165L229.607 182.872C229.607 182.872 223.425 199.983 220.595 200.339C206.305 198.788 193.306 185.211 193.306 185.211C193.306 185.211 220.173 159.626 232.672 160.219Z" fill="white"/>
</mask>
<g mask="url(#mask3_225_22)">
<path d="M227.495 170.796C223.648 179.552 225.875 194.927 225.875 194.927L234.885 189.375L227.495 170.796Z" fill="#0084F0" stroke="#143C9A" stroke-width="1.6" stroke-linecap="round" stroke-linejoin="round"/>
</g>
<path fill-rule="evenodd" clip-rule="evenodd" d="M232.672 160.219C236.766 160.733 236.799 168.165 236.799 168.165L229.607 182.872C229.607 182.872 223.425 199.983 220.595 200.339C206.305 198.788 193.306 185.211 193.306 185.211C193.306 185.211 220.173 159.626 232.672 160.219Z" stroke="#143C9A" stroke-width="1.6" stroke-linecap="round" stroke-linejoin="round"/>
<path d="M278.012 202.387L215.411 229.206C214.479 229.604 213.427 229.614 212.487 229.234C211.547 228.853 210.798 228.114 210.406 227.179L196 193.162C195.173 191.215 196.073 188.965 198.015 188.127L260.616 161.307C261.548 160.909 262.6 160.899 263.54 161.28C264.48 161.66 265.229 162.4 265.621 163.334L280.027 197.352C280.854 199.299 279.954 201.548 278.012 202.387Z" fill="white"/>
<path fill-rule="evenodd" clip-rule="evenodd" d="M278.012 202.387L215.411 229.206C214.479 229.604 213.427 229.614 212.487 229.234C211.547 228.853 210.798 228.114 210.406 227.179L196 193.162C195.173 191.215 196.073 188.965 198.015 188.127L260.616 161.307C261.548 160.909 262.6 160.899 263.54 161.28C264.48 161.66 265.229 162.4 265.621 163.334L280.027 197.352C280.854 199.299 279.954 201.548 278.012 202.387Z" stroke="#143C9A" stroke-width="1.6" stroke-linecap="round" stroke-linejoin="round"/>
<path d="M261.253 172.96L205.928 196.662C203.912 197.533 202.977 199.868 203.835 201.89L211.203 219.288C211.565 220.149 212.256 220.831 213.122 221.181C213.988 221.532 214.958 221.523 215.817 221.156L271.96 197.103C273.75 196.33 274.58 194.257 273.817 192.463L266.45 175.064C266.042 174.094 265.264 173.326 264.289 172.931C263.313 172.536 262.221 172.547 261.253 172.96V172.96Z" fill="white"/>
<mask id="mask4_225_22" style="mask-type:luminance" maskUnits="userSpaceOnUse" x="203" y="172" width="72" height="50">
<path fill-rule="evenodd" clip-rule="evenodd" d="M261.253 172.96L205.928 196.662C203.912 197.533 202.977 199.868 203.835 201.89L211.203 219.288C211.565 220.149 212.256 220.831 213.122 221.181C213.988 221.532 214.958 221.523 215.817 221.156L271.96 197.103C273.75 196.33 274.58 194.257 273.817 192.463L266.45 175.064C266.042 174.094 265.264 173.326 264.289 172.931C263.313 172.536 262.221 172.547 261.253 172.96V172.96Z" fill="white"/>
</mask>
<g mask="url(#mask4_225_22)">
<path d="M194.249 231.121L191.997 225.804C202.573 222.422 198.812 215.557 210.049 215.876C221.286 216.195 214.357 197.197 223.188 201.89C232.018 206.583 231.095 199.697 235.581 200.879C240.067 202.061 238.57 189.451 246.57 191.873C254.57 194.295 249.017 176.14 257.418 180.182C265.819 184.223 269.432 169.901 275.47 173.403C281.508 176.905 283.452 167.715 285.489 168.156L294.047 188.366L194.249 231.121Z" fill="white" stroke="#143C9A" stroke-width="1.6" stroke-linecap="round" stroke-linejoin="round"/>
</g>
<path fill-rule="evenodd" clip-rule="evenodd" d="M261.253 172.96L205.928 196.662C203.912 197.533 202.977 199.868 203.835 201.89L211.203 219.288C211.565 220.149 212.256 220.831 213.122 221.181C213.988 221.532 214.958 221.523 215.817 221.156L271.96 197.103C273.75 196.33 274.58 194.257 273.817 192.463L266.45 175.064C266.042 174.094 265.264 173.326 264.289 172.931C263.313 172.536 262.221 172.547 261.253 172.96V172.96Z" stroke="#143C9A" stroke-width="1.6" stroke-linecap="round" stroke-linejoin="round"/>
<path d="M243.557 200.862C247.415 204.071 252.218 205.724 252.689 206.928C253.161 208.133 250.853 207.44 250.853 207.44C250.853 207.44 256.671 210.372 256.661 211.536C256.652 212.699 253.543 211.057 253.543 211.057C253.543 211.057 255.573 211.802 255.808 212.403C256.043 213.005 253.1 214.739 240.375 205.883" fill="white"/>
<mask id="mask5_225_22" style="mask-type:luminance" maskUnits="userSpaceOnUse" x="240" y="200" width="17" height="13">
<path fill-rule="evenodd" clip-rule="evenodd" d="M243.557 200.862C247.415 204.071 252.218 205.724 252.689 206.928C253.161 208.133 250.853 207.44 250.853 207.44C250.853 207.44 256.671 210.372 256.661 211.536C256.652 212.699 253.543 211.057 253.543 211.057C253.543 211.057 255.573 211.802 255.808 212.403C256.043 213.005 253.1 214.739 240.375 205.883" fill="white"/>
</mask>
<g mask="url(#mask5_225_22)">
<path d="M242.571 212.516C245.34 211.001 246.031 201.439 246.031 201.439L240.376 204.273L239.312 208.509" fill="#7AC042"/>
</g>
<path d="M243.557 200.862C247.415 204.071 252.218 205.724 252.689 206.928C253.161 208.133 250.853 207.44 250.853 207.44C250.853 207.44 256.671 210.372 256.661 211.536C256.652 212.699 253.543 211.057 253.543 211.057C253.543 211.057 255.573 211.802 255.808 212.403C256.043 213.005 253.1 214.739 240.375 205.883" stroke="#143C9A" stroke-width="1.6" stroke-linecap="round" stroke-linejoin="round"/>
<path d="M224.989 170.759L229.135 190.353C229.277 191.145 229.577 191.9 230.016 192.574L240.804 209.089C244.155 208.595 246.03 201.439 246.03 201.439L240.757 187.666L236.466 165.211" fill="#0084F0"/>
<mask id="mask6_225_22" style="mask-type:luminance" maskUnits="userSpaceOnUse" x="224" y="165" width="23" height="45">
<path fill-rule="evenodd" clip-rule="evenodd" d="M224.989 170.759L229.135 190.353C229.277 191.145 229.577 191.9 230.016 192.574L240.804 209.089C244.155 208.595 246.03 201.439 246.03 201.439L240.757 187.666L236.466 165.211" fill="white"/>
</mask>
<g mask="url(#mask6_225_22)">
<path d="M244.874 195.582C242.066 202.643 236.799 206.131 236.799 206.131L232.734 204.553C232.734 204.553 242.892 197.659 244.461 192.675C246.03 187.691 244.874 195.582 244.874 195.582Z" fill="white" stroke="#143C9A" stroke-width="1.6" stroke-linecap="round" stroke-linejoin="round"/>
</g>
<path d="M224.989 170.759L229.135 190.353C229.277 191.145 229.577 191.9 230.016 192.574L240.804 209.089C244.155 208.595 246.03 201.439 246.03 201.439L240.757 187.666L236.466 165.211" stroke="#143C9A" stroke-width="1.6" stroke-linecap="round" stroke-linejoin="round"/>
<path d="M240.238 187.383C239.652 187.918 238.885 188.212 238.092 188.207" stroke="#143C9A" stroke-width="1.6" stroke-linecap="round" stroke-linejoin="round"/>
<path d="M209.505 176.085L209.162 177.91" stroke="#143C9A" stroke-width="1.6" stroke-linecap="round" stroke-linejoin="round"/>
<path d="M192.011 225.592C192.173 227.017 193.763 228.091 195.136 227.702" stroke="#143C9A" stroke-width="1.6" stroke-linecap="round" stroke-linejoin="round"/>
<path d="M257.251 191.869C257.347 193.91 257.009 195.949 256.26 197.85" stroke="#143C9A" stroke-width="1.6" stroke-linecap="round" stroke-linejoin="round"/>
<path d="M164.298 264.619L161.936 265.177C161.932 265.277 162.046 265.333 162.141 265.364L165.806 266.537" stroke="#143C9A" stroke-width="1.6" stroke-linecap="round" stroke-linejoin="round"/>
<path d="M240.511 265.003L237.518 266.889L241.89 267.132" stroke="#143C9A" stroke-width="1.6" stroke-linecap="round" stroke-linejoin="round"/>
<path d="M347.682 405.394C295.19 417.976 277.343 397.387 277.343 397.387C277.343 397.387 297.548 285.922 339.092 280.076C380.636 274.23 347.682 405.394 347.682 405.394Z" fill="#0084F0" stroke="#143C9A" stroke-width="1.6" stroke-linecap="round" stroke-linejoin="round"/>
<path d="M150.792 268.099C149.753 255.76 180.246 277.971 180.246 277.971C180.246 277.971 227.938 272.624 235.256 277.971C242.574 283.318 314.193 354.065 314.193 354.065L262.421 363.195C262.421 363.195 218.227 299.744 214.943 296.843C212.341 294.543 172.229 287.744 170.48 286.971C168.731 286.197 150.792 268.099 150.792 268.099Z" fill="white"/>
<mask id="mask7_225_22" style="mask-type:luminance" maskUnits="userSpaceOnUse" x="150" y="264" width="165" height="100">
<path fill-rule="evenodd" clip-rule="evenodd" d="M150.792 268.099C149.753 255.76 180.246 277.971 180.246 277.971C180.246 277.971 227.938 272.624 235.256 277.971C242.574 283.318 314.193 354.065 314.193 354.065L262.421 363.195C262.421 363.195 218.227 299.744 214.943 296.843C212.341 294.543 172.229 287.744 170.48 286.971C168.731 286.197 150.792 268.099 150.792 268.099Z" fill="white"/>
</mask>
<g mask="url(#mask7_225_22)">
<path d="M227.679 316.125C257.612 332.006 289.519 326.542 289.519 326.542L262.421 363.195L218.963 344.676L216.331 334.818" fill="#7AC042"/>
</g>
<path fill-rule="evenodd" clip-rule="evenodd" d="M150.792 268.099C149.753 255.76 180.246 277.971 180.246 277.971C180.246 277.971 227.938 272.624 235.256 277.971C242.574 283.318 314.193 354.065 314.193 354.065L262.421 363.195C262.421 363.195 218.227 299.744 214.943 296.843C212.341 294.543 172.229 287.744 170.48 286.971C168.731 286.197 150.792 268.099 150.792 268.099Z" stroke="#143C9A" stroke-width="1.6" stroke-linecap="round" stroke-linejoin="round"/>
<path d="M350.957 476.597L533.09 471.362C533.09 471.362 482.984 288.883 470.338 278.321C458.232 268.21 390.872 260.28 346.067 281.633C344.07 282.585 341.422 282.821 340.286 284.653C312.168 330 350.957 476.597 350.957 476.597Z" fill="white"/>
<path fill-rule="evenodd" clip-rule="evenodd" d="M350.957 476.597L533.09 471.362C533.09 471.362 482.984 288.883 470.338 278.321C458.232 268.21 390.872 260.28 346.067 281.633C344.07 282.585 341.422 282.821 340.286 284.653C312.168 330 350.957 476.597 350.957 476.597Z" stroke="#143C9A" stroke-width="1.6" stroke-linecap="round" stroke-linejoin="round"/>
<path d="M358.676 232.154L373.944 294.526L412.79 268.648L389.358 217.013L358.676 232.154V232.154Z" fill="white"/>
<mask id="mask8_225_22" style="mask-type:luminance" maskUnits="userSpaceOnUse" x="358" y="217" width="55" height="78">
<path fill-rule="evenodd" clip-rule="evenodd" d="M358.676 232.154L373.944 294.526L412.79 268.648L389.358 217.013L358.676 232.154V232.154Z" fill="white"/>
</mask>
<g mask="url(#mask8_225_22)">
<path d="M375.705 294.526C400.908 287.374 358.507 254.601 371.995 245.67C375.705 243.213 365.874 229.483 365.874 229.483L355.877 238.329" fill="#7AC042"/>
</g>
<path fill-rule="evenodd" clip-rule="evenodd" d="M358.676 232.154L373.944 294.526L412.79 268.648L389.358 217.013L358.676 232.154V232.154Z" stroke="#143C9A" stroke-width="1.6" stroke-linecap="round" stroke-linejoin="round"/>
<path d="M381.561 216.788L366.406 191.451L331.032 170.96C330.388 200.609 313.326 286.069 371.994 245.67" fill="white"/>
<path d="M381.561 216.788L366.406 191.451L331.032 170.96C330.388 200.609 313.326 286.069 371.994 245.67" stroke="#143C9A" stroke-width="1.6" stroke-linecap="round" stroke-linejoin="round"/>
<path d="M386.126 217.966C374.853 224.454 354.959 202.962 360.907 194.248C360.907 194.248 341.93 205.283 326.062 195.514C278.831 208.685 273.546 148.756 318.176 159.696C338.417 144.37 364.58 152.857 365.45 166.619C403.808 139.115 419.712 198.637 386.126 217.966Z" fill="#0084F0" stroke="#143C9A" stroke-width="1.6" stroke-linecap="round" stroke-linejoin="round"/>
<path d="M390.033 230.554C408.968 209.169 388.959 184.147 369.069 220.757Z" fill="white"/>
<path d="M390.033 230.554C408.968 209.169 388.959 184.147 369.069 220.757" stroke="#143C9A" stroke-width="1.6" stroke-linecap="round" stroke-linejoin="round"/>
<path d="M566.421 450.922L531.043 344.676H478.135L507.377 425.276L403.812 455.584L393.524 457.915C393.524 457.915 377.34 442.286 372.079 443.794C366.817 445.303 336.676 468.439 336.676 468.439H392.251L391.265 476.597H549.972C563.159 476.597 570.931 464.466 566.421 450.922Z" fill="white"/>
<mask id="mask9_225_22" style="mask-type:luminance" maskUnits="userSpaceOnUse" x="336" y="344" width="232" height="133">
<path fill-rule="evenodd" clip-rule="evenodd" d="M566.421 450.922L531.043 344.676H478.135L507.377 425.276L403.812 455.584L393.524 457.915C393.524 457.915 377.34 442.286 372.079 443.794C366.817 445.303 336.676 468.439 336.676 468.439H392.251L391.265 476.597H549.972C563.159 476.597 570.931 464.466 566.421 450.922Z" fill="white"/>
</mask>
<g mask="url(#mask9_225_22)">
<path d="M500.53 394.371C447.462 410.252 541.322 392.606 558.425 428.779C575.528 464.952 571.142 363.195 571.142 363.195L558.425 358.639" fill="#7AC042"/>
</g>
<path fill-rule="evenodd" clip-rule="evenodd" d="M566.421 450.922L531.043 344.676H478.135L507.377 425.276L403.812 455.584L393.524 457.915C393.524 457.915 377.34 442.286 372.079 443.794C366.817 445.303 336.676 468.439 336.676 468.439H392.251L391.265 476.597H549.972C563.159 476.597 570.931 464.466 566.421 450.922Z" stroke="#143C9A" stroke-width="1.6" stroke-linecap="round" stroke-linejoin="round"/>
<path d="M354.835 468.461H483.106C489.46 468.461 494.611 473.612 494.611 479.967V480H354.835V468.461V468.461Z" fill="white" stroke="#143C9A" stroke-width="1.6" stroke-linecap="round" stroke-linejoin="round"/>
<path d="M489.433 399.198C544.043 411.78 558.425 391.192 558.425 391.192C558.425 391.192 519.461 279.727 476.933 273.88C434.405 268.034 489.433 399.198 489.433 399.198Z" fill="#0084F0"/>
<mask id="mask10_225_22" style="mask-type:luminance" maskUnits="userSpaceOnUse" x="460" y="273" width="99" height="131">
<path fill-rule="evenodd" clip-rule="evenodd" d="M489.433 399.198C544.043 411.78 558.425 391.192 558.425 391.192C558.425 391.192 519.461 279.727 476.933 273.88C434.405 268.034 489.433 399.198 489.433 399.198Z" fill="white"/>
</mask>
<g mask="url(#mask10_225_22)">
<path d="M460.805 380.572C549.703 409.687 571.142 363.195 571.142 363.195L574.702 409.467C574.702 409.467 431.578 427.829 435.773 426.509" fill="#0084F0"/>
<path d="M460.805 380.572C549.703 409.687 571.142 363.195 571.142 363.195L574.702 409.467C574.702 409.467 431.578 427.829 435.773 426.509" stroke="#143C9A" stroke-width="1.6" stroke-linecap="round" stroke-linejoin="round"/>
</g>
<path fill-rule="evenodd" clip-rule="evenodd" d="M489.433 399.198C544.043 411.78 558.425 391.192 558.425 391.192C558.425 391.192 519.461 279.727 476.933 273.88C434.405 268.034 489.433 399.198 489.433 399.198Z" stroke="#143C9A" stroke-width="1.6" stroke-linecap="round" stroke-linejoin="round"/>
<path d="M382.113 480H196.757C192.955 480 189.352 477.571 187.724 473.911L125.755 334.598C124.494 331.763 126.283 328.75 129.228 328.75H316.701C320.503 328.75 324.107 331.179 325.735 334.839L386.796 472.113C388.497 475.936 386.084 480 382.113 480Z" fill="#7AC042"/>
<path fill-rule="evenodd" clip-rule="evenodd" d="M382.113 480H196.757C192.955 480 189.352 477.571 187.724 473.911L125.755 334.598C124.494 331.763 126.283 328.75 129.228 328.75H316.701C320.503 328.75 324.107 331.179 325.735 334.839L386.796 472.113C388.497 475.936 386.084 480 382.113 480Z" stroke="#143C9A" stroke-width="1.6" stroke-linecap="round" stroke-linejoin="round"/>
<path d="M385.871 304.978L373.944 294.526C373.944 294.526 404.045 252.685 405.178 251.875C407.936 249.904 425.405 268.357 425.405 268.357L385.871 304.978Z" fill="white" stroke="#143C9A" stroke-width="1.6" stroke-linecap="round" stroke-linejoin="round"/>
<path d="M365.537 304.978L375.706 294.526C375.706 294.526 366.277 260.758 365.007 259.948C361.918 257.977 351.972 279.076 351.972 279.076L365.537 304.978Z" fill="white" stroke="#143C9A" stroke-width="1.6" stroke-linecap="round" stroke-linejoin="round"/>
<ellipse cx="240.108" cy="404.375" rx="6.47251" ry="12.5747" transform="rotate(-51.1503 240.108 404.375)" fill="white" stroke="#143C9A" stroke-width="1.6" stroke-linecap="round" stroke-linejoin="round"/>
<ellipse cx="375.705" cy="313.781" rx="3.50772" ry="3.52814" fill="white" stroke="#143C9A" stroke-width="1.6" stroke-linecap="round" stroke-linejoin="round"/>
<ellipse cx="377.453" cy="344.676" rx="3.50772" ry="3.52814" fill="white" stroke="#143C9A" stroke-width="1.6" stroke-linecap="round" stroke-linejoin="round"/>
<path d="M333.012 210.731C320.839 215.919 322.923 228.238 331.003 226.784Z" fill="white"/>
<path d="M333.012 210.731C320.839 215.919 322.923 228.238 331.003 226.784" stroke="#143C9A" stroke-width="1.6" stroke-linecap="round" stroke-linejoin="round"/>
<g opacity="0.27">
<ellipse cx="350.71" cy="220.898" rx="6.8871" ry="5.10819" fill="#7AC042"/>
</g>
<path d="M346.58 227.669C341.872 232.946 335.933 231.307 335.933 231.307Z" fill="white"/>
<path d="M346.58 227.669C341.872 232.946 335.933 231.307 335.933 231.307" stroke="#143C9A" stroke-width="1.6" stroke-linecap="round" stroke-linejoin="round"/>
<path d="M381.562 217.594C382.43 216.103 384.733 215.741 386.012 216.894C387.291 218.047 387.184 220.39 385.806 221.42" stroke="#143C9A" stroke-width="1.6" stroke-linecap="round" stroke-linejoin="round"/>
<path d="M325.06 172.128C326.571 175.368 328.951 178.127 331.934 180.099" stroke="#143C9A" stroke-width="1.6" stroke-linecap="round" stroke-linejoin="round"/>
<path d="M386.223 181.4L386.552 181.731" stroke="#143C9A" stroke-width="1.6" stroke-linecap="round" stroke-linejoin="round"/>
<path d="M510.879 347.026C513.874 345.472 517.168 344.579 520.538 344.407" stroke="#143C9A" stroke-width="1.6" stroke-linecap="round" stroke-linejoin="round"/>
<path d="M292.371 399.246L311.722 413.288" stroke="#143C9A" stroke-width="1.6" stroke-linecap="round" stroke-linejoin="round"/>
<path d="M507.032 425.008C509.853 427.205 511.714 430.408 512.226 433.946" stroke="#143C9A" stroke-width="1.6" stroke-linecap="round" stroke-linejoin="round"/>
<path d="M450.365 412.334L445.102 417.627" stroke="#143C9A" stroke-width="1.6" stroke-linecap="round" stroke-linejoin="round"/>
<path d="M414.79 376.023C411.314 380.546 406.326 383.666 400.738 384.812" stroke="#143C9A" stroke-width="1.6" stroke-linecap="round" stroke-linejoin="round"/>
<path d="M373.251 62.6172H252.179C248.757 62.6273 245.99 65.41 246 68.8327V124.571C245.99 127.993 248.757 130.776 252.179 130.786H331.325C334.515 134.837 338.154 139.451 340.799 142.803C342.021 144.352 344.485 143.463 344.485 141.485V130.786H373.251C376.674 130.776 379.44 127.993 379.431 124.571V68.8327C379.44 65.41 376.674 62.6272 373.251 62.6172Z" fill="#0084F0"/>
<path fill-rule="evenodd" clip-rule="evenodd" d="M373.251 62.6172H252.179C248.757 62.6273 245.99 65.41 246 68.8327V124.571C245.99 127.993 248.757 130.776 252.179 130.786H331.325C334.515 134.837 338.154 139.451 340.799 142.803C342.021 144.352 344.485 143.463 344.485 141.485V130.786H373.251C376.674 130.776 379.44 127.993 379.431 124.571V68.8327C379.44 65.41 376.674 62.6272 373.251 62.6172Z" stroke="#143C9A" stroke-width="1.6" stroke-linecap="round" stroke-linejoin="round"/>
<ellipse cx="272.94" cy="94.8377" rx="6.17221" ry="6.20814" fill="white" stroke="#143C9A" stroke-width="1.6" stroke-linecap="round" stroke-linejoin="round"/>
<ellipse cx="298.742" cy="94.8377" rx="6.17221" ry="6.20814" fill="white" stroke="#143C9A" stroke-width="1.6" stroke-linecap="round" stroke-linejoin="round"/>
<ellipse cx="324.545" cy="94.8377" rx="6.17221" ry="6.20814" fill="white" stroke="#143C9A" stroke-width="1.6" stroke-linecap="round" stroke-linejoin="round"/>
<ellipse cx="350.346" cy="94.8377" rx="6.17221" ry="6.20814" fill="white" stroke="#143C9A" stroke-width="1.6" stroke-linecap="round" stroke-linejoin="round"/>
<path d="M355.819 112.265C352.674 115.082 349.21 117.523 345.499 119.537" stroke="#143C9A" stroke-width="1.6" stroke-linecap="round" stroke-linejoin="round"/>
<path d="M280.961 70.5563L279.166 73.2659" stroke="#143C9A" stroke-width="1.6" stroke-linecap="round" stroke-linejoin="round"/>
<path d="M365.774 114.449L358.72 121.027" stroke="#143C9A" stroke-width="1.6" stroke-linecap="round" stroke-linejoin="round"/>
<path d="M570.581 154.589L565.551 165.262" stroke="#143C9A" stroke-width="1.6" stroke-linecap="round" stroke-linejoin="round"/>
<path d="M511.612 168.45C509.992 171.183 507.694 173.451 504.94 175.037" stroke="#143C9A" stroke-width="1.6" stroke-linecap="round" stroke-linejoin="round"/>
<path d="M470.709 405.992C470.675 411.324 468.566 416.433 464.83 420.237" stroke="#143C9A" stroke-width="1.6" stroke-linecap="round" stroke-linejoin="round"/>
<path d="M214.474 445.324C216.705 448.174 219.553 450.481 222.804 452.073" stroke="#143C9A" stroke-width="1.6" stroke-linecap="round" stroke-linejoin="round"/>
<path d="M171.694 355.773C172.767 357.616 174.643 358.848 176.76 359.102" stroke="#143C9A" stroke-width="1.6" stroke-linecap="round" stroke-linejoin="round"/>
<path d="M97.1628 81.0856C96.84 86.3279 98.0406 91.5517 100.62 96.1271" stroke="#143C9A" stroke-width="1.6" stroke-linecap="round" stroke-linejoin="round"/>
</svg>
